<svg width="1634" height="1892" viewBox="0 0 1634 1892" fill="none" xmlns="http://www.w3.org/2000/svg">
<g opacity="0.5" filter="url(#filter0_d_210_14)">
<path d="M344.706 192.197C219.641 104.211 244.191 0.284974 272.1 -40.6798L655.691 -680.206L2941.78 590.256L2558.19 1229.78C2535.28 1273.53 2454.06 1345.96 2312.36 1285.7C2135.24 1210.37 2103.37 1273.52 2048.39 1308.42C1993.41 1343.33 1923.41 1369.88 1804.1 1251.6C1684.79 1133.31 1552.9 1042.69 1390.83 1075.83C1261.17 1102.35 1173.56 1064.83 1143.19 1047.95C1112.82 1031.08 1035.26 976.807 994.29 855.464C943.076 703.784 795.592 639.15 629.515 598.837C463.438 558.524 452.331 486.892 456.243 423.607C460.156 360.322 501.038 302.18 344.706 192.197Z" fill="#E1C3C3"/>
<path d="M344.706 192.197C219.641 104.211 244.191 0.284974 272.1 -40.6798L655.691 -680.206L2941.78 590.256L2558.19 1229.78C2535.28 1273.53 2454.06 1345.96 2312.36 1285.7C2135.24 1210.37 2103.37 1273.52 2048.39 1308.42C1993.41 1343.33 1923.41 1369.88 1804.1 1251.6C1684.79 1133.31 1552.9 1042.69 1390.83 1075.83C1261.17 1102.35 1173.56 1064.83 1143.19 1047.95C1112.82 1031.08 1035.26 976.807 994.29 855.464C943.076 703.784 795.592 639.15 629.515 598.837C463.438 558.524 452.331 486.892 456.243 423.607C460.156 360.322 501.038 302.18 344.706 192.197Z" stroke="black"/>
</g>
<g filter="url(#filter1_d_210_14)">
<path d="M478.983 55.9095C390.78 -42.3808 432.8 -125.941 464.835 -155.435L920.732 -625.726L2601.86 884.218L2145.96 1354.51C2117.61 1387.31 2033.91 1433.44 1925.94 1355.53C1790.99 1258.15 1751.07 1305.73 1697.29 1324.97C1643.52 1344.2 1578.7 1353.52 1501.56 1230.6C1424.42 1107.68 1330.96 1005.86 1186.66 1003.39C1071.21 1001.4 1004.51 953.013 982.182 932.956C959.852 912.899 905.09 852.193 895.054 741.476C882.51 603.081 770.522 520.374 637.798 454.796C505.073 389.219 510.248 326.33 526.469 273.362C542.689 220.394 589.236 178.772 478.983 55.9095Z" fill="black"/>
<path d="M478.983 55.9095C390.78 -42.3808 432.8 -125.941 464.835 -155.435L920.732 -625.726L2601.86 884.218L2145.96 1354.51C2117.61 1387.31 2033.91 1433.44 1925.94 1355.53C1790.99 1258.15 1751.07 1305.73 1697.29 1324.97C1643.52 1344.2 1578.7 1353.52 1501.56 1230.6C1424.42 1107.68 1330.96 1005.86 1186.66 1003.39C1071.21 1001.4 1004.51 953.013 982.182 932.956C959.852 912.899 905.09 852.193 895.054 741.476C882.51 603.081 770.522 520.374 637.798 454.796C505.073 389.219 510.248 326.33 526.469 273.362C542.689 220.394 589.236 178.772 478.983 55.9095Z" fill="url(#paint0_linear_210_14)"/>
</g>
<g filter="url(#filter2_d_210_14)">
<path d="M601.093 -668.841C566.08 -794.273 641.673 -851.926 683.845 -865.073L1306.86 -1097.7L2138.42 965.738L1515.41 1198.37C1475.06 1216.03 1378.85 1222.53 1316.83 1107.18C1239.3 962.996 1181.86 989.123 1124.74 983.934C1067.63 978.744 1005.05 959.997 991.127 817.021C977.203 674.044 939.051 543.232 810.232 480.59C707.177 430.476 668.978 358.979 657.932 331.571C646.886 304.162 625.004 226.573 665.993 122.674C717.228 -7.19868 653.756 -128.556 563.871 -243.169C473.987 -357.784 507.062 -412.247 545.601 -453.152C584.139 -494.058 644.859 -512.051 601.093 -668.841Z" fill="black"/>
<path d="M601.093 -668.841C566.08 -794.273 641.673 -851.926 683.845 -865.073L1306.86 -1097.7L2138.42 965.738L1515.41 1198.37C1475.06 1216.03 1378.85 1222.53 1316.83 1107.18C1239.3 962.996 1181.86 989.123 1124.74 983.934C1067.63 978.744 1005.05 959.997 991.127 817.021C977.203 674.044 939.051 543.232 810.232 480.59C707.177 430.476 668.978 358.979 657.932 331.571C646.886 304.162 625.004 226.573 665.993 122.674C717.228 -7.19868 653.756 -128.556 563.871 -243.169C473.987 -357.784 507.062 -412.247 545.601 -453.152C584.139 -494.058 644.859 -512.051 601.093 -668.841Z" fill="url(#paint1_linear_210_14)"/>
</g>
<g filter="url(#filter3_d_210_14)">
<path d="M844.968 -106.682C790.436 -225.483 855.978 -293.587 895.566 -312.789L1474.28 -634.404L2623.95 1282.33L2455.41 1455.88C2418.34 1479.28 2324.29 1499.87 2244.67 1395.01C2145.15 1263.93 2092.53 1298.21 2035.27 1301.49C1978 1304.77 1578.67 1394.32 1466.52 1294.4C1357.03 1196.86 1371.55 1041.37 1234.29 998.433C1124.49 964.082 1075.38 899.05 1060.11 873.59C1044.83 848.13 1010.88 774.675 1034.88 665.965C1064.87 530.077 982.864 419.493 875.825 319.461C768.786 219.429 792.817 160.737 824.402 114.639C855.988 68.5404 913.134 41.82 844.968 -106.682Z" fill="black"/>
<path d="M844.968 -106.682C790.436 -225.483 855.978 -293.587 895.566 -312.789L1474.28 -634.404L2623.95 1282.33L2455.41 1455.88C2418.34 1479.28 2324.29 1499.87 2244.67 1395.01C2145.15 1263.93 2092.53 1298.21 2035.27 1301.49C1978 1304.77 1578.67 1394.32 1466.52 1294.4C1357.03 1196.86 1371.55 1041.37 1234.29 998.433C1124.49 964.082 1075.38 899.05 1060.11 873.59C1044.83 848.13 1010.88 774.675 1034.88 665.965C1064.87 530.077 982.864 419.493 875.825 319.461C768.786 219.429 792.817 160.737 824.402 114.639C855.988 68.5404 913.134 41.82 844.968 -106.682Z" fill="url(#paint2_linear_210_14)"/>
</g>
<defs>
<filter id="filter0_d_210_14" x="245.035" y="-680.878" width="2701.44" height="2027.41" filterUnits="userSpaceOnUse" color-interpolation-filters="sRGB">
<feFlood flood-opacity="0" result="BackgroundImageFix"/>
<feColorMatrix in="SourceAlpha" type="matrix" values="0 0 0 0 0 0 0 0 0 0 0 0 0 0 0 0 0 0 127 0" result="hardAlpha"/>
<feOffset dy="4"/>
<feGaussianBlur stdDeviation="2"/>
<feComposite in2="hardAlpha" operator="out"/>
<feColorMatrix type="matrix" values="0 0 0 0 0 0 0 0 0 0 0 0 0 0 0 0 0 0 0.25 0"/>
<feBlend mode="normal" in2="BackgroundImageFix" result="effect1_dropShadow_210_14"/>
<feBlend mode="normal" in="SourceGraphic" in2="effect1_dropShadow_210_14" result="shape"/>
</filter>
<filter id="filter1_d_210_14" x="422.239" y="-625.726" width="2183.62" height="2032" filterUnits="userSpaceOnUse" color-interpolation-filters="sRGB">
<feFlood flood-opacity="0" result="BackgroundImageFix"/>
<feColorMatrix in="SourceAlpha" type="matrix" values="0 0 0 0 0 0 0 0 0 0 0 0 0 0 0 0 0 0 127 0" result="hardAlpha"/>
<feOffset dy="4"/>
<feGaussianBlur stdDeviation="2"/>
<feComposite in2="hardAlpha" operator="out"/>
<feColorMatrix type="matrix" values="0 0 0 0 0 0 0 0 0 0 0 0 0 0 0 0 0 0 0.25 0"/>
<feBlend mode="normal" in2="BackgroundImageFix" result="effect1_dropShadow_210_14"/>
<feBlend mode="normal" in="SourceGraphic" in2="effect1_dropShadow_210_14" result="shape"/>
</filter>
<filter id="filter2_d_210_14" x="502.42" y="-1097.7" width="1640" height="2313.98" filterUnits="userSpaceOnUse" color-interpolation-filters="sRGB">
<feFlood flood-opacity="0" result="BackgroundImageFix"/>
<feColorMatrix in="SourceAlpha" type="matrix" values="0 0 0 0 0 0 0 0 0 0 0 0 0 0 0 0 0 0 127 0" result="hardAlpha"/>
<feOffset dy="4"/>
<feGaussianBlur stdDeviation="2"/>
<feComposite in2="hardAlpha" operator="out"/>
<feColorMatrix type="matrix" values="0 0 0 0 0 0 0 0 0 0 0 0 0 0 0 0 0 0 0.25 0"/>
<feBlend mode="normal" in2="BackgroundImageFix" result="effect1_dropShadow_210_14"/>
<feBlend mode="normal" in="SourceGraphic" in2="effect1_dropShadow_210_14" result="shape"/>
</filter>
<filter id="filter3_d_210_14" x="793.606" y="-634.404" width="1834.34" height="2117.2" filterUnits="userSpaceOnUse" color-interpolation-filters="sRGB">
<feFlood flood-opacity="0" result="BackgroundImageFix"/>
<feColorMatrix in="SourceAlpha" type="matrix" values="0 0 0 0 0 0 0 0 0 0 0 0 0 0 0 0 0 0 127 0" result="hardAlpha"/>
<feOffset dy="4"/>
<feGaussianBlur stdDeviation="2"/>
<feComposite in2="hardAlpha" operator="out"/>
<feColorMatrix type="matrix" values="0 0 0 0 0 0 0 0 0 0 0 0 0 0 0 0 0 0 0.25 0"/>
<feBlend mode="normal" in2="BackgroundImageFix" result="effect1_dropShadow_210_14"/>
<feBlend mode="normal" in="SourceGraphic" in2="effect1_dropShadow_210_14" result="shape"/>
</filter>
<linearGradient id="paint0_linear_210_14" x1="-358.948" y1="-420.249" x2="1620.94" y2="1238.08" gradientUnits="userSpaceOnUse">
<stop stop-color="white"/>
<stop offset="0.505208" stop-color="#BAFF74"/>
<stop offset="0.675347" stop-color="#FFF500"/>
<stop offset="1" stop-color="#FFFD00"/>
</linearGradient>
<linearGradient id="paint1_linear_210_14" x1="721.624" y1="-765.494" x2="1365.58" y2="1724.59" gradientUnits="userSpaceOnUse">
<stop stop-color="#00F580"/>
<stop offset="0.505208" stop-color="#1C89C7"/>
<stop offset="1" stop-color="#00748D"/>
</linearGradient>
<linearGradient id="paint2_linear_210_14" x1="1423.45" y1="-606.321" x2="1695.53" y2="2078.96" gradientUnits="userSpaceOnUse">
<stop stop-color="#10C700"/>
<stop offset="0.505208" stop-color="#FF9A6D"/>
<stop offset="1" stop-color="#FF9494"/>
</linearGradient>
</defs>
</svg>
